REM DIRINDEX 1\2\4,1\2\5,1\2\6,1\3\7,1\3\8,1\3\9,1\3\10
REM DIRNAME folder01,folder02,folder03,folder04,folder05,folder06,folder07,folder08,folder09,folder10
TITLE ""
FILE "b_226.mp3" MP3
  TRACK 01 AUDIO
    TITLE "0:"
    INDEX 01 00:00:00
  TRACK 02 AUDIO
    TITLE "7:cjc057_10697"
    INDEX 01 00:00:15
  TRACK 03 AUDIO
    TITLE "0:"
    INDEX 01 00:01:36
  TRACK 04 AUDIO
    TITLE "8:cjc057_10698"
    INDEX 01 00:01:68
  TRACK 05 AUDIO
    TITLE "0:"
    INDEX 01 00:05:36
  TRACK 06 AUDIO
    TITLE "9:cjc057_10699"
    INDEX 01 00:06:02
  TRACK 07 AUDIO
    TITLE "0:"
    INDEX 01 00:08:60
  TRACK 08 AUDIO
    TITLE "7:cjc057_10700"
    INDEX 01 00:09:63
  TRACK 09 AUDIO
    TITLE "0:"
    INDEX 01 00:11:15
  TRACK 10 AUDIO
    TITLE "8:cjc057_10701"
    INDEX 01 00:11:44
  TRACK 11 AUDIO
    TITLE "0:"
    INDEX 01 00:12:63
  TRACK 12 AUDIO
    TITLE "9:cjc057_10702"
    INDEX 01 00:13:28
  TRACK 13 AUDIO
    TITLE "0:"
    INDEX 01 00:17:02
  TRACK 14 AUDIO
    TITLE "7:cjc057_10703"
    INDEX 01 00:18:07
  TRACK 15 AUDIO
    TITLE "0:"
    INDEX 01 00:19:30
  TRACK 16 AUDIO
    TITLE "8:cjc057_10704"
    INDEX 01 00:19:62
  TRACK 17 AUDIO
    TITLE "0:"
    INDEX 01 00:21:60
  TRACK 18 AUDIO
    TITLE "9:cjc057_10705"
    INDEX 01 00:22:27
  TRACK 19 AUDIO
    TITLE "0:"
    INDEX 01 00:26:03
  TRACK 20 AUDIO
    TITLE "7:cjc057_10706"
    INDEX 01 00:27:08
  TRACK 21 AUDIO
    TITLE "0:"
    INDEX 01 00:28:27
  TRACK 22 AUDIO
    TITLE "8:cjc057_10707"
    INDEX 01 00:28:53
  TRACK 23 AUDIO
    TITLE "0:"
    INDEX 01 00:31:20
  TRACK 24 AUDIO
    TITLE "9:cjc057_10708"
    INDEX 01 00:31:61
  TRACK 25 AUDIO
    TITLE "0:"
    INDEX 01 00:36:72
  TRACK 26 AUDIO
    TITLE "7:cjc057_10709"
    INDEX 01 00:38:02
  TRACK 27 AUDIO
    TITLE "0:"
    INDEX 01 00:39:39
  TRACK 28 AUDIO
    TITLE "8:cjc057_10710"
    INDEX 01 00:39:68
  TRACK 29 AUDIO
    TITLE "0:"
    INDEX 01 00:42:51
  TRACK 30 AUDIO
    TITLE "9:cjc057_10711"
    INDEX 01 00:43:17
  TRACK 31 AUDIO
    TITLE "0:"
    INDEX 01 00:48:20
  TRACK 32 AUDIO
    TITLE "7:cjc057_10712"
    INDEX 01 00:49:25
  TRACK 33 AUDIO
    TITLE "0:"
    INDEX 01 00:50:44
  TRACK 34 AUDIO
    TITLE "8:cjc057_10713"
    INDEX 01 00:50:74
  TRACK 35 AUDIO
    TITLE "0:"
    INDEX 01 00:53:35
  TRACK 36 AUDIO
    TITLE "9:cjc057_10714"
    INDEX 01 00:54:03
  TRACK 37 AUDIO
    TITLE "0:"
    INDEX 01 00:58:05
  TRACK 38 AUDIO
    TITLE "7:cjc057_10715"
    INDEX 01 00:59:10
  TRACK 39 AUDIO
    TITLE "0:"
    INDEX 01 01:00:25
  TRACK 40 AUDIO
    TITLE "8:cjc057_10716"
    INDEX 01 01:00:47
  TRACK 41 AUDIO
    TITLE "0:"
    INDEX 01 01:03:06
  TRACK 42 AUDIO
    TITLE "9:cjc057_10717"
    INDEX 01 01:03:43
  TRACK 43 AUDIO
    TITLE "0:"
    INDEX 01 01:07:02
  TRACK 44 AUDIO
    TITLE "7:cjc057_10718"
    INDEX 01 01:08:07
  TRACK 45 AUDIO
    TITLE "0:"
    INDEX 01 01:09:30
  TRACK 46 AUDIO
    TITLE "8:cjc057_10719"
    INDEX 01 01:09:61
  TRACK 47 AUDIO
    TITLE "0:"
    INDEX 01 01:12:66
  TRACK 48 AUDIO
    TITLE "9:cjc057_10720"
    INDEX 01 01:13:32
  TRACK 49 AUDIO
    TITLE "0:"
    INDEX 01 01:16:48
  TRACK 50 AUDIO
    TITLE "7:cjc057_10721"
    INDEX 01 01:17:51
  TRACK 51 AUDIO
    TITLE "0:"
    INDEX 01 01:18:74
  TRACK 52 AUDIO
    TITLE "8:cjc057_10722"
    INDEX 01 01:19:28
  TRACK 53 AUDIO
    TITLE "0:"
    INDEX 01 01:21:12
  TRACK 54 AUDIO
    TITLE "9:cjc057_10723"
    INDEX 01 01:21:59
  TRACK 55 AUDIO
    TITLE "0:"
    INDEX 01 01:24:34
  TRACK 56 AUDIO
    TITLE "7:cjc057_10724"
    INDEX 01 01:25:37
  TRACK 57 AUDIO
    TITLE "0:"
    INDEX 01 01:26:72
  TRACK 58 AUDIO
    TITLE "8:cjc057_10725"
    INDEX 01 01:27:24
  TRACK 59 AUDIO
    TITLE "0:"
    INDEX 01 01:28:74
  TRACK 60 AUDIO
    TITLE "9:cjc057_10726"
    INDEX 01 01:29:37
  TRACK 61 AUDIO
    TITLE "0:"
    INDEX 01 01:33:23
  TRACK 62 AUDIO
    TITLE "7:cjc057_10727"
    INDEX 01 01:34:28
  TRACK 63 AUDIO
    TITLE "0:"
    INDEX 01 01:35:63
  TRACK 64 AUDIO
    TITLE "8:cjc057_10728"
    INDEX 01 01:36:19
  TRACK 65 AUDIO
    TITLE "0:"
    INDEX 01 01:38:51
  TRACK 66 AUDIO
    TITLE "9:cjc057_10729"
    INDEX 01 01:39:15
  TRACK 67 AUDIO
    TITLE "0:"
    INDEX 01 01:43:33
  TRACK 68 AUDIO
    TITLE "7:cjc057_10730"
    INDEX 01 01:44:34
  TRACK 69 AUDIO
    TITLE "0:"
    INDEX 01 01:45:63
  TRACK 70 AUDIO
    TITLE "8:cjc057_10731"
    INDEX 01 01:46:18
  TRACK 71 AUDIO
    TITLE "0:"
    INDEX 01 01:50:62
  TRACK 72 AUDIO
    TITLE "9:cjc057_10732"
    INDEX 01 01:51:28
  TRACK 73 AUDIO
    TITLE "0:"
    INDEX 01 01:54:60
  TRACK 74 AUDIO
    TITLE "7:cjc057_10733"
    INDEX 01 01:55:63
  TRACK 75 AUDIO
    TITLE "0:"
    INDEX 01 01:57:27
  TRACK 76 AUDIO
    TITLE "8:cjc057_10734"
    INDEX 01 01:57:55
  TRACK 77 AUDIO
    TITLE "0:"
    INDEX 01 01:59:01
  TRACK 78 AUDIO
    TITLE "9:cjc057_10735"
    INDEX 01 01:59:44
  TRACK 79 AUDIO
    TITLE "0:"
    INDEX 01 02:02:30
  TRACK 80 AUDIO
    TITLE "7:cjc057_10736"
    INDEX 01 02:03:32
  TRACK 81 AUDIO
    TITLE "0:"
    INDEX 01 02:04:45
  TRACK 82 AUDIO
    TITLE "8:cjc057_10737"
    INDEX 01 02:04:74
  TRACK 83 AUDIO
    TITLE "0:"
    INDEX 01 02:06:42
  TRACK 84 AUDIO
    TITLE "9:cjc057_10738"
    INDEX 01 02:07:08
  TRACK 85 AUDIO
    TITLE "0:"
    INDEX 01 02:10:69
  TRACK 86 AUDIO
    TITLE "7:cjc057_10739"
    INDEX 01 02:11:74
  TRACK 87 AUDIO
    TITLE "0:"
    INDEX 01 02:13:18
  TRACK 88 AUDIO
    TITLE "8:cjc057_10740"
    INDEX 01 02:13:48
  TRACK 89 AUDIO
    TITLE "0:"
    INDEX 01 02:15:41
  TRACK 90 AUDIO
    TITLE "9:cjc057_10741"
    INDEX 01 02:16:07
  TRACK 91 AUDIO
    TITLE "0:"
    INDEX 01 02:18:57
